<svg width="20" height="21" viewBox="0 0 20 21" fill="none" xmlns="http://www.w3.org/2000/svg">
<path d="M9.99911 0.762917C9.93454 0.771265 9.72701 0.800486 9.53792 0.825531C8.24195 0.996679 7.01978 1.90252 6.4894 3.08386C6.26341 3.58061 6.21729 3.85611 6.18501 4.83709L6.15734 5.7471H4.40017C2.45853 5.7471 2.24638 5.76797 1.74368 5.99756C1.19946 6.24802 0.793609 6.76564 0.682922 7.36675C0.646026 7.56712 0.636802 9.06154 0.650638 12.593C0.669086 18.0281 0.65525 17.7692 0.950417 18.4288C1.47618 19.5851 2.55538 20.4074 3.9113 20.6829C4.22492 20.7456 4.80603 20.7539 10.322 20.7539C15.8379 20.7539 16.419 20.7456 16.7326 20.6829C18.0885 20.4074 19.1677 19.5851 19.6935 18.4288C19.9887 17.7692 19.9748 18.0281 19.9933 12.593C20.0071 9.06154 19.9979 7.56712 19.961 7.36675C19.8918 6.9994 19.6474 6.5444 19.3891 6.31481C19.2784 6.21045 19.057 6.06852 18.9002 5.99756C18.3975 5.76797 18.1854 5.7471 16.2437 5.7471H14.4866L14.4589 4.83709C14.4266 3.85611 14.3805 3.58061 14.1545 3.08386C13.638 1.93591 12.4988 1.06347 11.2213 0.842228C10.8616 0.779613 10.179 0.733696 9.99911 0.762917ZM10.8662 2.05697C11.5395 2.1822 12.1575 2.54537 12.5541 3.04629C12.9784 3.58478 13.0891 3.99804 13.0891 5.03746V5.7471H10.322H7.55477V5.03746C7.55477 3.99804 7.66545 3.58478 8.08975 3.04629C8.47716 2.55371 9.09978 2.1822 9.74545 2.06114C10.1698 1.97765 10.4373 1.97765 10.8662 2.05697ZM6.1804 8.65662C6.19423 10.5017 6.19884 10.5142 6.50785 10.6603C6.83069 10.8106 7.29188 10.7104 7.44869 10.4516C7.52248 10.3305 7.53171 10.151 7.54554 8.65662L7.55938 6.9994H10.322H13.0845L13.0984 8.65662C13.1122 10.5017 13.1168 10.5142 13.4258 10.6603C13.7486 10.8106 14.2098 10.7104 14.3667 10.4516C14.4404 10.3305 14.4497 10.151 14.4635 8.65662L14.4773 6.99523L16.3314 7.00775C18.3698 7.02028 18.3283 7.0161 18.5174 7.27909C18.5958 7.38344 18.6004 7.69235 18.6143 12.28C18.6281 17.6607 18.6327 17.5397 18.3468 18.0823C18.0747 18.5916 17.4982 19.0967 16.9494 19.3096C16.3959 19.5266 16.4743 19.5225 10.322 19.5225C4.16958 19.5225 4.24798 19.5266 3.69454 19.3096C3.14572 19.0967 2.56922 18.5874 2.29711 18.0823C2.01578 17.5438 2.02039 17.6649 2.02039 12.376C2.02039 9.32035 2.03884 7.50867 2.06651 7.41266C2.12186 7.23734 2.27867 7.09541 2.46314 7.04115C2.53694 7.02445 3.39938 7.00358 4.38173 7.00358L6.16656 6.9994L6.1804 8.65662Z" fill="black"/>
</svg>
