<svg width="24" height="21" viewBox="0 0 24 21" fill="#000000" xmlns="http://www.w3.org/2000/svg">
    <g id="Group">
        <path id="Vector" d="M5.70654 0.532631C5.61255 0.54438 5.34821 0.597248 5.11912 0.650116C3.20413 1.09655 1.5711 2.37713 0.689969 4.12177C-0.255778 5.99564 -0.226407 8.42756 0.760459 10.3308C1.31851 11.4058 1.60634 11.7054 5.57731 15.4002C7.61566 17.2976 9.57764 19.1245 9.93597 19.4534C10.2884 19.7883 10.6996 20.1407 10.8406 20.2347C11.3986 20.5989 12.0624 20.5872 12.6381 20.2053C12.8026 20.0996 13.3841 19.5886 13.9304 19.0775C19.3641 14.0198 21.4847 12.0285 21.6903 11.7876C22.5949 10.7126 23.0942 9.71401 23.3409 8.46868C23.4701 7.81664 23.4701 6.50082 23.3409 5.84879C22.8768 3.52847 21.3495 1.71922 19.1467 0.890957C18.4536 0.632492 17.9954 0.54438 17.1612 0.509134C15.5811 0.444517 14.3592 0.808718 12.9847 1.76034C12.456 2.12454 12.2152 2.33014 11.9567 2.64147L11.7452 2.89406L11.3986 2.53573C10.447 1.56649 9.00784 0.808718 7.68615 0.579624C7.23971 0.497385 6.16473 0.473888 5.70654 0.532631ZM7.93874 2.10692C9.08421 2.42413 9.86548 2.9528 10.7701 4.02191C11.2107 4.54471 11.4456 4.72094 11.7217 4.72094C12.0213 4.72094 12.2093 4.58583 12.6616 4.05128C13.437 3.14078 14.0009 2.69434 14.8351 2.34776C15.5282 2.05405 15.8689 1.99531 16.8382 1.99531C17.9073 1.99531 18.4007 2.10692 19.2231 2.52399C20.5859 3.21714 21.514 4.40373 21.8782 5.91928C21.9957 6.43033 22.0075 7.75203 21.9017 8.27483C21.6844 9.27932 21.2438 10.1605 20.6035 10.8536C20.4332 11.0357 15.6457 15.506 12.4384 18.4783C12.0977 18.7955 11.7746 19.054 11.7217 19.054C11.6747 19.054 10.0593 17.5972 8.13846 15.8173C2.49922 10.5834 2.58734 10.6656 2.08803 9.76101C1.64746 8.96212 1.47711 8.21609 1.48299 7.09999C1.48886 5.89578 1.71795 5.12039 2.34649 4.18639C3.08664 3.07616 4.26736 2.30077 5.60668 2.04818C6.18235 1.93657 7.43943 1.97181 7.93874 2.10692Z" fill="black" />
    </g>
</svg>