<svg width="22" height="22" viewBox="0 0 22 22" fill="none" xmlns="http://www.w3.org/2000/svg">
<path d="M5.50231 0.532377C4.51689 0.733841 1.44238 1.47838 1.25406 1.55721C0.943102 1.69736 0.746018 1.85941 0.522656 2.14847C0.189803 2.59081 0.159146 2.71782 0.167905 3.63754C0.202942 6.50621 0.978139 9.44057 2.34897 11.8975C3.99571 14.845 5.96655 16.9473 8.69945 18.6729C11.555 20.4729 14.4324 21.3576 17.8967 21.489C18.466 21.5109 18.6456 21.5021 18.8602 21.4452C19.3989 21.3006 19.8588 20.9109 20.0865 20.4028C20.1435 20.267 20.4062 19.2553 20.6603 18.1517C21.1902 15.8918 21.2208 15.6378 21.0325 15.156C20.8968 14.7969 20.6296 14.4509 20.3537 14.2669C20.2223 14.1793 19.1318 13.6844 17.9317 13.1676C15.5361 12.1384 15.3565 12.0815 14.8441 12.1691C14.2309 12.2742 13.9506 12.4932 13.0178 13.6275L12.3346 14.4553L12.0937 14.3195C11.6688 14.083 10.771 13.4655 10.298 13.0888C9.78998 12.6815 8.92281 11.81 8.53302 11.3194C8.04688 10.7019 7.28482 9.55882 7.22351 9.34422C7.21475 9.32232 7.56512 9.01136 7.99871 8.66099C9.098 7.76317 9.37391 7.41718 9.47902 6.80402C9.56662 6.29599 9.50968 6.11204 8.49361 3.75142C7.98557 2.57329 7.52132 1.52218 7.46439 1.41706C7.07898 0.760118 6.24247 0.383471 5.50231 0.532377ZM6.15926 1.89007C6.24685 1.94262 6.3432 2.06525 6.40014 2.1835C6.65854 2.73534 8.16513 6.26533 8.19579 6.39234C8.27462 6.71643 8.23083 6.76899 7.0308 7.75441C6.41328 8.26245 5.8702 8.72669 5.82202 8.788C5.77385 8.8537 5.72129 8.98509 5.71253 9.0902C5.69501 9.24787 5.72129 9.33546 5.94027 9.75152C6.80744 11.4026 7.95929 12.8129 9.50968 14.1136C10.2498 14.7356 10.9856 15.2305 11.8966 15.7035C12.3127 15.9224 12.4046 15.9531 12.5623 15.9356C12.663 15.9268 12.7944 15.8743 12.8601 15.8261C12.9214 15.7779 13.3857 15.2348 13.8937 14.6173C14.8791 13.4173 14.9273 13.3735 15.2558 13.4523C15.4397 13.4917 19.4821 15.2392 19.6135 15.3312C19.7361 15.4188 19.8456 15.6421 19.8456 15.8042C19.8413 16.0276 18.9434 19.8335 18.8646 19.9561C18.7201 20.1751 18.5449 20.2101 17.8091 20.1795C14.209 20.0174 11.2177 18.9794 8.41477 16.9166C7.67899 16.3779 7.20161 15.9662 6.46145 15.2261C4.42054 13.1895 3.03219 10.9253 2.20444 8.26245C1.78837 6.93979 1.53873 5.44196 1.46866 3.83901C1.43362 3.07695 1.47304 2.91052 1.72268 2.78351C1.89786 2.69154 5.60742 1.81123 5.8483 1.80685C5.94903 1.80247 6.07604 1.83751 6.15926 1.89007Z" fill="black"/>
</svg>