<svg width="26" height="21" viewBox="0 0 26 21" fill="none" xmlns="http://www.w3.org/2000/svg">
<path d="M2.87163 0.548805C1.94445 0.715864 1.17597 1.43005 0.908673 2.36976C0.837673 2.62453 0.833496 2.95447 0.833496 8.63034C0.833496 14.3062 0.837673 14.6361 0.908673 14.8909C1.10915 15.5967 1.58527 16.1773 2.24515 16.5072C2.45398 16.6158 2.7881 16.7077 3.11804 16.7536L3.31434 16.7787L3.3394 17.0167C3.46469 18.1653 3.86981 18.9755 4.64247 19.6271C5.34829 20.2243 6.10842 20.5 7.05648 20.5C8.01708 20.5041 8.7772 20.2368 9.48303 19.6563C10.2599 19.0173 10.6942 18.1528 10.8153 17.0126L10.8404 16.7745H13.3421H15.8438L15.8689 17.0126C15.9942 18.1653 16.3993 18.9755 17.172 19.6271C17.8778 20.2243 18.6379 20.5 19.586 20.5C20.5466 20.5041 21.3067 20.2368 22.0125 19.6563C22.7894 19.0173 23.2237 18.1528 23.3448 17.0167L23.3699 16.7787L24.4015 16.7662C25.2911 16.7536 25.4498 16.7453 25.5667 16.6785C25.9384 16.478 25.9384 15.8139 25.5667 15.6176C25.4749 15.5717 25.2994 15.5424 25.028 15.5299L24.6187 15.5132V12.5604C24.6187 9.42805 24.6061 9.26516 24.414 8.89763C24.3681 8.80575 24.0841 8.44239 23.7792 8.08739C23.4785 7.73239 22.7392 6.86368 22.1462 6.15785C21.5489 5.44784 20.9851 4.80466 20.8891 4.72113C20.6385 4.50813 20.2835 4.33689 19.9786 4.28677C19.8324 4.26589 19.1224 4.24501 18.4082 4.24501H17.101V3.56424C17.0968 3.18 17.0717 2.74982 17.0383 2.56188C16.8754 1.63052 16.1821 0.870396 15.2424 0.586393C15.0044 0.515392 14.6452 0.50704 9.08209 0.502863C4.32505 0.494511 3.11387 0.502863 2.87163 0.548805ZM15.1589 1.8477C15.4137 1.98552 15.6726 2.26952 15.7645 2.52011C15.848 2.74147 15.848 2.85006 15.848 9.13152V15.5216H13.2419H10.6357L10.5063 15.2501C10.2223 14.6361 9.64174 13.9679 9.09461 13.6171C8.07555 12.9655 6.71819 12.8611 5.58218 13.3414C4.78029 13.6839 4.01599 14.4398 3.64846 15.2543L3.52734 15.5216H3.29763C2.84657 15.5216 2.39968 15.2501 2.17415 14.8324L2.08645 14.6654V8.63034V2.59529L2.17415 2.42823C2.3078 2.18182 2.59598 1.91452 2.83822 1.82264C3.04287 1.74328 3.18904 1.74328 9.01944 1.75164L14.9918 1.75999L15.1589 1.8477ZM19.8742 5.55643C19.9744 5.5982 20.4338 6.0952 21.4779 7.30221C22.2798 8.22521 22.9898 9.04799 23.0525 9.11899L23.1652 9.25681H20.1331H17.101V7.37739V5.49796H18.4166C19.4523 5.49796 19.7656 5.51049 19.8742 5.55643ZM23.3657 13.0157V15.5216H23.2655C23.182 15.5216 23.1444 15.4756 23.0358 15.2501C22.7518 14.6403 22.1712 13.9679 21.6325 13.6213C20.4839 12.8862 18.9303 12.8486 17.7316 13.521C17.6021 13.5962 17.4226 13.7173 17.3265 13.7925C17.2304 13.8718 17.1427 13.9345 17.126 13.9345C17.1135 13.9345 17.101 13.1618 17.101 12.2221V10.5098H20.2333H23.3657V13.0157ZM7.57019 14.3354C7.98784 14.419 8.32614 14.586 8.66444 14.8659C9.65844 15.6844 9.85892 17.1045 9.13638 18.1695C8.77303 18.7041 8.20084 19.0841 7.57019 19.2136C7.16925 19.2971 6.98966 19.2971 6.59289 19.2178C6.19195 19.1342 5.95806 19.0298 5.62812 18.7959C5.12694 18.4368 4.76358 17.8771 4.63829 17.2673C4.55476 16.8622 4.55476 16.6868 4.63829 16.2817C4.76358 15.6719 5.12694 15.1123 5.62812 14.7531C5.94971 14.5234 6.19195 14.4148 6.56783 14.3354C6.93954 14.2561 7.18178 14.2561 7.57019 14.3354ZM20.0997 14.3354C21.3694 14.5944 22.2715 15.8473 22.0794 17.0878C22.0125 17.5263 21.8914 17.8353 21.6659 18.1695C21.3025 18.7041 20.7303 19.0841 20.0997 19.2136C19.6988 19.2971 19.5192 19.2971 19.1224 19.2178C18.7215 19.1342 18.4876 19.0298 18.1576 18.7959C17.6564 18.4368 17.2931 17.8771 17.1678 17.2673C17.0843 16.8622 17.0843 16.6868 17.1678 16.2817C17.2931 15.6719 17.6564 15.1123 18.1576 14.7531C18.4792 14.5234 18.7215 14.4148 19.0973 14.3354C19.469 14.2561 19.7113 14.2561 20.0997 14.3354Z" fill="black"/>
<path d="M10.0009 3.05889C9.77958 3.15495 6.00402 6.9305 5.89961 7.16439C5.80355 7.37321 5.82025 7.56116 5.95808 7.73239C6.13349 7.95792 6.17108 7.9621 8.12568 7.9621H9.92576L9.53734 8.37975C9.32016 8.60528 8.69786 9.25264 8.15492 9.81229C7.02309 10.9859 6.99385 11.0277 7.16509 11.3743C7.24444 11.5288 7.31127 11.5957 7.4658 11.675C7.84168 11.863 7.76233 11.9256 10.0093 9.68282C12.2228 7.4651 12.1727 7.52774 12.0307 7.15186C11.9806 7.02239 11.9096 6.93468 11.8052 6.86786C11.6507 6.7718 11.6381 6.7718 9.82552 6.75092L7.99621 6.73003L9.37028 5.32255C10.9323 3.7313 10.9281 3.73548 10.7485 3.38048C10.6733 3.23012 10.5982 3.15495 10.4603 3.08395C10.2432 2.97536 10.1972 2.97536 10.0009 3.05889Z" fill="black"/></svg>