<svg width="24" height="28" viewBox="0 0 24 28" fill="none" xmlns="http://www.w3.org/2000/svg">
<path d="M22.565 9.78496C22.442 9.86196 19.514 11.487 19.514 15.09C19.652 19.199 23.209 20.64 23.27 20.64C23.209 20.717 22.733 22.603 21.323 24.58C20.204 26.283 18.962 28 17.076 28C15.282 28 14.638 26.865 12.568 26.865C10.345 26.865 9.71604 28 8.01404 28C6.12804 28 4.79404 26.191 3.61404 24.504C2.08104 22.296 0.778045 18.831 0.732045 15.504C0.701045 13.741 1.03904 12.008 1.89704 10.536C3.10804 8.48096 5.27004 7.08596 7.63104 7.03996C9.44004 6.97896 11.05 8.28196 12.154 8.28196C13.212 8.28196 15.19 7.03996 17.428 7.03996C18.394 7.04096 20.97 7.33196 22.565 9.78496ZM12.001 6.68796C11.679 5.07796 12.568 3.46796 13.396 2.44096C14.454 1.19896 16.125 0.355957 17.566 0.355957C17.658 1.96596 17.075 3.54496 16.033 4.69496C15.098 5.93696 13.488 6.87196 12.001 6.68796Z" fill="white"/>
</svg>
