<svg width="48" height="48" viewBox="0 0 48 48" fill="none" xmlns="http://www.w3.org/2000/svg">
<path d="M39.336 47.05H7.67787C5.63991 47.0452 3.68706 46.2323 2.2477 44.7895C0.808333 43.3468 -5.61494e-06 41.392 0 39.354V7.69593C0 5.65485 0.810819 3.69735 2.25409 2.25409C3.69735 0.810819 5.65485 0 7.69593 0H39.354C41.3951 0 43.3526 0.810819 44.7959 2.25409C46.2392 3.69735 47.05 5.65485 47.05 7.69593V39.354C47.05 40.3662 46.8503 41.3684 46.4624 42.3033C46.0746 43.2382 45.5061 44.0874 44.7895 44.8023C44.073 45.5172 43.2224 46.0837 42.2866 46.4693C41.3508 46.855 40.3481 47.0524 39.336 47.05ZM7.67787 2.26904C6.24048 2.26904 4.86197 2.84004 3.84558 3.85642C2.8292 4.87281 2.2582 6.25132 2.2582 7.68871V39.3468C2.2582 40.7842 2.8292 42.1627 3.84558 43.1791C4.86197 44.1955 6.24048 44.7665 7.67787 44.7665H39.336C40.7734 44.7665 42.1519 44.1955 43.1683 43.1791C44.1847 42.1627 44.7556 40.7842 44.7556 39.3468V7.69593C44.7556 6.25855 44.1847 4.88003 43.1683 3.86365C42.1519 2.84726 40.7734 2.27626 39.336 2.27626L7.67787 2.26904Z" fill="black"/>
<path d="M26.7796 26.6753V27.3416C26.7796 31.9599 24.2423 33.9447 20.4046 33.9447C16.567 33.9447 13.9938 31.9599 13.9938 27.3416V11.4307H10.6016V27.3057C10.6016 33.8339 14.999 36.8307 20.3687 36.8307C25.7354 36.8307 30.1718 33.8339 30.1718 27.3057V26.6747H26.7796V26.6753Z" fill="black"/>
<path d="M37.0852 20.2153H26.4199V23.5577H37.0852V20.2153Z" fill="black"/>
<path d="M39.7862 11.4302H26.4199V14.7725H39.7862V11.4302Z" fill="black"/>
</svg>