<svg width="60" height="60" viewBox="0 0 100 100" fill="none" xmlns="http://www.w3.org/2000/svg"><path d="M83.6046 100H16.3185C11.9871 99.9898 7.83647 98.262 4.77725 95.1956C1.71803 92.1292 -1.1934e-05 87.9745 0 83.643V16.3569C0 12.0188 1.72331 7.85835 4.79083 4.79083C7.85835 1.72331 12.0188 0 16.3569 0H83.643C87.9811 0 92.1416 1.72331 95.2091 4.79083C98.2766 7.85835 100 12.0188 100 16.3569V83.643C100 85.7943 99.5756 87.9244 98.7512 89.9114C97.9268 91.8984 96.7185 93.7033 95.1956 95.2227C93.6726 96.7421 91.8649 97.9461 89.8759 98.7659C87.887 99.5856 85.7559 100.005 83.6046 100ZM16.3185 4.8226C13.2635 4.8226 10.3336 6.03621 8.17339 8.19643C6.01317 10.3567 4.79957 13.2865 4.79957 16.3416V83.6277C4.79957 86.6827 6.01317 89.6126 8.17339 91.7728C10.3336 93.933 13.2635 95.1466 16.3185 95.1466H83.6046C86.6596 95.1466 89.5895 93.933 91.7498 91.7728C93.91 89.6126 95.1236 86.6827 95.1236 83.6277V16.3569C95.1236 13.3019 93.91 10.372 91.7498 8.21179C89.5895 6.05156 86.6596 4.83797 83.6046 4.83797L16.3185 4.8226Z" fill="url(#paint0_linear_570_218)"/><path d="M57.7589 55.781V57.1973C57.7589 67.0125 52.3668 71.2306 44.2101 71.2306C36.0533 71.2306 30.5854 67.0125 30.5854 57.1973V23.3804H23.375V57.1214C23.375 70.9964 32.7204 77.3655 44.1342 77.3655C55.5401 77.3655 64.9693 70.9964 64.9693 57.1214V55.781H57.7589Z" fill="url(#paint1_linear_570_218)"/><path d="M79.6581 42.0547H56.9901V49.1586H79.6581V42.0547Z" fill="url(#paint2_linear_570_218)"/><path d="M85.3989 23.3799H56.9901V30.4837H85.3989V23.3799Z" fill="url(#paint3_linear_570_218)"/><defs><linearGradient id="paint0_linear_570_218" x1="0" y1="0" x2="99.8937" y2="99.8937" gradientUnits="userSpaceOnUse"><stop stop-color="#FAE892"/><stop offset="1" stop-color="#B3903E"/></linearGradient><linearGradient id="paint1_linear_570_218" x1="45.1726" y1="77.3505" x2="42.497" y2="22.4485" gradientUnits="userSpaceOnUse"><stop stop-color="#FAE892"/><stop offset="1" stop-color="#B3903E"/></linearGradient><linearGradient id="paint2_linear_570_218" x1="68.5241" y1="49.7011" x2="68.125" y2="41.5118" gradientUnits="userSpaceOnUse"><stop stop-color="#FAE892"/><stop offset="1" stop-color="#B3903E"/></linearGradient><linearGradient id="paint3_linear_570_218" x1="71.4013" y1="31.1662" x2="70.9886" y2="22.6978" gradientUnits="userSpaceOnUse"><stop stop-color="#FAE892"/><stop offset="1" stop-color="#B3903E"/></linearGradient></defs></svg>